<!DOCTYPE svg PUBLIC "-//W3C//DTD SVG 1.1//EN" "http://www.w3.org/Graphics/SVG/1.1/DTD/svg11.dtd">
<!-- Uploaded to: SVG Repo, www.svgrepo.com, Transformed by: SVG Repo Mixer Tools -->
<svg fill="#ffffff" height="800px" width="800px" version="1.1" id="Capa_1" xmlns="http://www.w3.org/2000/svg" xmlns:xlink="http://www.w3.org/1999/xlink" viewBox="0 0 252.311 252.311" xml:space="preserve">
<g id="SVGRepo_bgCarrier" stroke-width="0"/>
<g id="SVGRepo_tracerCarrier" stroke-linecap="round" stroke-linejoin="round"/>
<g id="SVGRepo_iconCarrier"> <path d="M191.419,188.336c-1.304,0-2.582-0.51-3.537-1.465c-1.38-1.381-1.83-3.438-1.153-5.27c0.782-2.115,1.179-4.293,1.179-6.475 c0-7.454-4.313-14.065-11.064-17.083H47.035C21.1,158.044,0,136.944,0,111.009s21.1-47.035,47.035-47.035h158.24 c25.936,0,47.035,21.1,47.035,47.035c0,23.693-17.712,43.429-40.593,46.588c0.142,1.159,0.213,2.329,0.213,3.507 c0,11.953-7.547,22.772-18.78,26.922C192.586,188.235,192,188.336,191.419,188.336z"/> </g>
</svg>